<svg width="73" height="18" viewBox="0 0 73 18" fill="none" xmlns="http://www.w3.org/2000/svg">
<path d="M0.25 17V0.499999H3.49V17H0.25ZM8.00391 17V0.499999H11.2439L18.3539 11.6V0.499999H21.5939V17H18.3539L11.2439 5.9V17H8.00391ZM29.9992 17.32C29.2326 17.32 28.5259 17.2333 27.8792 17.06C27.2326 16.8933 26.6526 16.6833 26.1392 16.43C25.6326 16.17 25.1959 15.9033 24.8292 15.63C24.4626 15.3567 24.1726 15.1167 23.9592 14.91L25.6192 12.23C25.8392 12.4233 26.1026 12.64 26.4092 12.88C26.7159 13.12 27.0592 13.35 27.4392 13.57C27.8192 13.7833 28.2292 13.9633 28.6692 14.11C29.1159 14.25 29.5892 14.32 30.0892 14.32C30.5559 14.32 30.9659 14.2467 31.3192 14.1C31.6792 13.9533 31.9626 13.7367 32.1692 13.45C32.3759 13.1567 32.4792 12.7933 32.4792 12.36C32.4792 11.9667 32.3959 11.6333 32.2292 11.36C32.0626 11.08 31.8159 10.83 31.4892 10.61C31.1692 10.3833 30.7726 10.1633 30.2992 9.95C29.8326 9.73 29.2992 9.49 28.6992 9.23C28.2526 9.03 27.8259 8.80333 27.4192 8.55C27.0192 8.29 26.6626 7.99 26.3492 7.65C26.0359 7.31 25.7859 6.92667 25.5992 6.5C25.4192 6.06667 25.3292 5.58333 25.3292 5.05C25.3292 4.41667 25.4559 3.81 25.7092 3.23C25.9626 2.65 26.3226 2.13333 26.7892 1.68C27.2626 1.22667 27.8226 0.866666 28.4692 0.599999C29.1226 0.333333 29.8492 0.199999 30.6492 0.199999C31.2492 0.199999 31.8492 0.279999 32.4492 0.439999C33.0492 0.599999 33.6092 0.809999 34.1292 1.07C34.6492 1.33 35.0892 1.61333 35.4492 1.92L34.0992 4.46C33.8126 4.21333 33.4859 3.99333 33.1192 3.8C32.7592 3.6 32.3726 3.44 31.9592 3.32C31.5526 3.2 31.1392 3.14 30.7192 3.14C30.2459 3.14 29.8426 3.22333 29.5092 3.39C29.1826 3.55667 28.9292 3.78 28.7492 4.06C28.5759 4.33333 28.4892 4.64 28.4892 4.98C28.4892 5.26 28.5459 5.5 28.6592 5.7C28.7792 5.89333 28.9459 6.06333 29.1592 6.21C29.3726 6.35 29.6292 6.48667 29.9292 6.62C30.2292 6.74667 30.5592 6.88333 30.9192 7.03C31.6926 7.35667 32.3926 7.68 33.0192 8C33.6459 8.32 34.1826 8.67667 34.6292 9.07C35.0759 9.45667 35.4159 9.91 35.6492 10.43C35.8892 10.95 36.0092 11.57 36.0092 12.29C36.0092 13.3433 35.7559 14.2467 35.2492 15C34.7492 15.7533 34.0492 16.33 33.1492 16.73C32.2492 17.1233 31.1992 17.32 29.9992 17.32ZM39.332 17V0.499999H42.572V17H39.332ZM47.0859 17V0.499999H51.6159C52.7893 0.499999 53.8793 0.709999 54.8859 1.13C55.8926 1.55 56.7726 2.13667 57.5259 2.89C58.2859 3.64333 58.8759 4.52 59.2959 5.52C59.7226 6.52 59.9359 7.6 59.9359 8.76C59.9359 9.92667 59.7259 11.01 59.3059 12.01C58.8859 13.0033 58.2959 13.8767 57.5359 14.63C56.7826 15.3767 55.8993 15.96 54.8859 16.38C53.8793 16.7933 52.7893 17 51.6159 17H47.0859ZM50.3259 14.1H51.2559C52.0026 14.1 52.6926 13.9667 53.3259 13.7C53.9593 13.4333 54.5093 13.06 54.9759 12.58C55.4426 12.1 55.8059 11.5367 56.0659 10.89C56.3259 10.2367 56.4559 9.52333 56.4559 8.75C56.4559 7.98333 56.3259 7.27667 56.0659 6.63C55.8059 5.97667 55.4426 5.41 54.9759 4.93C54.5093 4.44333 53.9593 4.06667 53.3259 3.8C52.6926 3.53333 52.0026 3.4 51.2559 3.4H50.3259V14.1ZM63.1992 17V0.499999H72.3792V3.34H66.4392V7.31H72.1392V10.15H66.4392V14.16H72.3792V17H63.1992Z" fill="#F8F9FA"/>
</svg>
